<svg xmlns="http://www.w3.org/2000/svg" width="300" height="59" viewBox="0 0 300 59"><g><g><g><path fill="#fff" d="M2.09 49.886V4.949h48.642v44.937z"/></g><g><path fill="#ff195a" d="M-.013 0H55.36v48.427c0 2.837-2.454 5.159-5.454 5.159H33.901c-3.425 0-6.227 2.603-6.227 5.844 0-3.241-2.803-5.844-6.228-5.844H5.44c-2.998 0-5.453-2.322-5.453-5.16V43.68z"/></g><g><path fill="#1d2c43" d="M88.413 34.614V22.68l-5.36 8.134h-.12L77.6 22.739v11.875h-5.692V13.833h6.14l5.003 8.045 5.002-8.045h6.14v20.78zm16.434-8.194h4.703l-2.336-5.908zm7.908 8.194l-1.528-3.711h-8.087l-1.498 3.71h-6.11l8.926-20.929h5.601l8.926 20.93zm30.975 0V18.879h-6.29v-5.046h18.392v5.046h-6.29v15.735zm14.428 0V13.833h16.864v4.898H163.91v3.147h10.064v4.542H163.91v3.295h11.263v4.899zm25.36-10.807h3.835c1.977 0 3.115-.95 3.115-2.523 0-1.633-1.198-2.464-3.145-2.464h-3.804zm6.77 10.807l-4.223-6.294h-2.546v6.294h-5.811V13.833h9.914c3.206 0 5.422.83 6.83 2.226 1.228 1.217 1.857 2.82 1.857 4.928 0 3.177-1.708 5.284-4.313 6.383l5.002 7.244zm36.619 0V16h-7.04v-2.167h16.475V16h-7.039v18.614zm37.074-2.168h4.913c5.301 0 8.686-3.562 8.686-8.223 0-4.602-3.385-8.223-8.686-8.223h-4.913zm-2.366 2.168V13.833h7.279c6.59 0 11.142 4.482 11.142 10.39 0 5.849-4.552 10.39-11.142 10.39zm27.26 0V26.39l-8.717-12.557h2.875l7.07 10.39 7.128-10.39h2.756l-8.716 12.527v8.254zm-87.287-3.028l1.468-1.722c2.186 1.959 4.283 2.939 7.189 2.939 2.815 0 4.672-1.485 4.672-3.592 0-1.93-1.048-3.028-5.451-3.949-4.823-1.039-7.04-2.582-7.04-6.056 0-3.265 2.906-5.67 6.89-5.67 3.055 0 5.242.86 7.369 2.553l-1.378 1.81c-1.947-1.573-3.894-2.255-6.051-2.255-2.726 0-4.463 1.484-4.463 3.413 0 1.96 1.078 3.058 5.691 4.038 4.673 1.01 6.83 2.702 6.83 5.938 0 3.562-2.996 5.877-7.16 5.877-3.324 0-6.05-1.098-8.566-3.324zm37.848-17.753h2.366v11.934c0 4.483 2.396 7.006 6.41 7.006 3.864 0 6.32-2.316 6.32-6.858V13.833h2.367v11.904c0 6.056-3.505 9.203-8.747 9.203-5.182 0-8.716-3.147-8.716-9.025zM118.62 31.526zm3.235-3.83c2.067 1.633 4.373 2.494 6.8 2.494 1.557 0 2.396-.534 2.396-1.484 0-.86-.69-1.336-3.535-1.99-4.463-1.009-7.908-2.256-7.908-6.59 0-3.859 3.086-6.65 8.118-6.65 3.564 0 6.35.95 8.627 2.762l-2.906 4.066c-1.917-1.336-4.014-2.048-5.87-2.048-1.409 0-2.098.594-2.098 1.395 0 .95.72 1.366 3.625 2.019 4.822 1.04 7.818 2.583 7.818 6.531 0 4.245-3.385 6.769-8.477 6.769-3.714 0-7.249-1.158-9.825-3.444z"/></g><g><path fill="#fff" d="M31.569 29.956H24.91c-.23 0-.346-.109-.346-.327v-1.39c0-.219.117-.328.346-.328h1.932V14.333h-.029l-5.476 12.87c-.23.545-.653.817-1.268.817s-1.038-.272-1.268-.817l-5.476-12.87h-.057v13.578h1.93c.25 0 .376.11.376.327v1.39c0 .22-.126.328-.376.328H8.571c-.25 0-.374-.109-.374-.327v-1.39c0-.219.124-.328.374-.328h2.19V12.424h-2.19c-.25 0-.374-.108-.374-.327v-1.39c0-.219.124-.328.374-.328h4.438c.654 0 1.105.31 1.355.928l4.294 9.815 1.354 3.436h.116c.538-1.418.98-2.545 1.326-3.382l4.322-9.87c.25-.618.711-.927 1.383-.927h4.41c.231 0 .346.11.346.328v1.39c0 .219-.115.327-.346.327h-2.22v15.487h2.22c.231 0 .346.11.346.327v1.39c0 .22-.115.328-.346.328"/></g><g><path fill="#fff" d="M32.9 42.969h-1.614c-.25 0-.374-.11-.374-.328v-6.38c0-.235.124-.354.374-.354H33.1c.231 0 .346.119.346.355v.571c0 .346.222.805.664 1.377.44.573.882 1.041 1.324 1.405.442.364 1.033.677 1.773.941a7.126 7.126 0 0 0 2.406.395c1.48 0 2.637-.29 3.473-.872.836-.582 1.253-1.391 1.253-2.427 0-.6-.235-1.114-.705-1.54-.47-.428-1.081-.768-1.83-1.023-.75-.254-1.58-.49-2.494-.71a43.154 43.154 0 0 1-2.736-.749 14.993 14.993 0 0 1-2.494-1.008 4.925 4.925 0 0 1-1.83-1.636c-.47-.7-.706-1.523-.706-2.468 0-1.527.61-2.79 1.83-3.79 1.22-1 2.857-1.5 4.913-1.5 2.594 0 4.496.719 5.707 2.154l-.058-1.69c0-.218.125-.327.375-.327h1.613c.23 0 .347.109.347.327v5.944c0 .218-.117.327-.347.327H44.11c-.23 0-.345-.109-.345-.327v-.764c0-.745-.442-1.5-1.326-2.263-.884-.763-2.182-1.144-3.891-1.144-1.268 0-2.291.286-3.07.858-.777.573-1.166 1.304-1.166 2.195 0 .636.24 1.182.72 1.635.48.455 1.105.819 1.874 1.092a27.22 27.22 0 0 0 2.535.75c.923.226 1.845.476 2.767.75.922.271 1.768.599 2.536.98a5.04 5.04 0 0 1 1.874 1.569c.48.664.72 1.449.72 2.358 0 1.6-.606 2.918-1.816 3.954-1.21 1.035-3.016 1.553-5.417 1.553-1.768 0-3.229-.336-4.38-1.009-1.153-.671-1.99-1.399-2.508-2.18l.028 2.671c0 .219-.114.328-.345.328"/></g></g></g></svg>